<svg xmlns="http://www.w3.org/2000/svg" width="256" height="256"><path fill-opacity=".016" d="M0 128.004v128.004l128.25-.254 128.25-.254.254-127.75L257.008 0H0v128.004m.485.496c0 70.4.119 99.053.265 63.672.146-35.38.146-92.98 0-128C.604 29.153.485 58.1.485 128.5" fill="#1976D2" fill-rule="evenodd"/><path fill-opacity=".299" d="M0 128.004v128.004l128.25-.254 128.25-.254.254-127.75L257.008 0H0v128.004m.485.496c0 70.4.119 99.053.265 63.672.146-35.38.146-92.98 0-128C.604 29.153.485 58.1.485 128.5m110.778-57.727c-5.631 2.008-9.906 3.954-9.5 4.322.405.369 8.06 3.079 17.01 6.022l16.273 5.352-.273 37.277c-.18 24.535.069 37.158.727 36.927l22.25-7.761L179 145.5v-27.75c0-15.263-.366-27.75-.812-27.75-.447 0-4.807 1.35-9.688 3s-9.466 3-10.188 3c-.978 0-1.312-2.127-1.312-8.364v-8.364l-16.75-5.774c-9.213-3.175-17.2-5.909-17.75-6.076-.55-.166-5.607 1.342-11.237 3.351M83.75 80.739L77 83.237l.007 30.131.008 30.132 23.742 8.412c13.059 4.626 24.193 8.57 24.743 8.763.646.228.823-3.405.5-10.261l-.5-10.613-14-5.006c-7.7-2.753-14.45-5.369-15-5.813-.623-.504-.891-8.144-.71-20.278l.29-19.47 7.52-2.867 7.519-2.867-8.81-2.735c-4.845-1.504-9.484-2.687-10.309-2.629-.825.058-4.537 1.229-8.25 2.603M158 108.403l-11.5 4.116-.28 13.942c-.153 7.669-.074 14.478.178 15.133.318.828 4.052-.088 12.279-3.012l11.823-4.202.279-14.362c.153-7.898-.072-14.669-.5-15.045-.429-.377-5.954 1.167-12.279 3.43M79.136 182.25c-.103 2.848.254 3.75 1.486 3.75 1.179 0 1.342-.342.596-1.25-.564-.687-1.233-2.375-1.486-3.75-.339-1.843-.495-1.514-.596 1.25m17.864.309c0 1.957.408 3.307.906 2.999.498-.308.671-1.46.383-2.559-.287-1.099-.051-1.999.525-1.999.576 0 1.242 1.012 1.48 2.25.387 2.005.448 1.963.57-.393.081-1.583-.498-2.886-1.446-3.25-2.384-.915-2.418-.873-2.418 2.952m44-.618c0 1.618.45 3.219 1 3.559.595.368 1-.823 1-2.941 0-1.957-.45-3.559-1-3.559s-1 1.323-1 2.941m27 .618c0 1.963.421 3.299.939 2.979.516-.319.767-1.471.557-2.559-.21-1.088.013-1.979.495-1.979s1.064 1.238 1.293 2.75c.4 2.645.422 2.63.566-.393.098-2.046-.402-3.355-1.432-3.75-2.384-.915-2.418-.873-2.418 2.952m-80.493-1.57c-.363.587.086.721 1.105.33.944-.363 1.474-.245 1.177.261-.296.506-.177 1.82.266 2.92.659 1.638.817 1.413.875-1.25.069-3.194-2.001-4.562-3.423-2.261M107 182.441c0 2.945 1.737 4.259 3.337 2.525.91-.986.782-1.126-.587-.645-2.168.763-2.347-.878-.187-1.707 1.818-.697.995-2.614-1.122-2.614-.861 0-1.441.982-1.441 2.441m10 .726c0 3.641.437 3.509 1.378-.417.392-1.633.246-2.75-.359-2.75-.56 0-1.019 1.425-1.019 3.167m8.232-.167c0 1.925.206 2.713.457 1.75.252-.963.252-2.537 0-3.5-.251-.963-.457-.175-.457 1.75m1.768.059c0 1.785.417 2.802 1 2.441.55-.34 1-1.716 1-3.059 0-1.343-.45-2.441-1-2.441s-1 1.377-1 3.059m22-.618c0 2.908 1.713 4.249 3.337 2.613.887-.894.747-1.014-.587-.506-.963.366-1.75.216-1.75-.334s.704-1.27 1.563-1.6c1.818-.697.995-2.614-1.122-2.614-.861 0-1.441.982-1.441 2.441m10 0c0 2.771 1.501 4.176 2.585 2.421.452-.731.291-.903-.43-.457-.734.453-1.155-.059-1.155-1.405 0-1.165.45-1.84 1-1.5.55.34 1 .141 1-.441s-.675-1.059-1.5-1.059c-.924 0-1.5.938-1.5 2.441m-72 1.5c0 .518.45 1.219 1 1.559.55.34 1-.084 1-.941S88.55 183 88 183s-1 .423-1 .941" fill="#1976D2" fill-rule="evenodd"/><path fill-opacity=".648" d="M0 128.004v128.004l128.25-.254 128.25-.254.254-127.75L257.008 0H0v128.004m.485.496c0 70.4.119 99.053.265 63.672.146-35.38.146-92.98 0-128C.604 29.153.485 58.1.485 128.5M110.25 70.725c-5.638 1.977-10.238 3.86-10.224 4.185.014.324 7.664 3.042 17 6.039L134 86.398v37.301c0 20.516.338 37.314.75 37.33.412.016 10.762-3.451 23-7.704L180 145.59v-28.295c0-15.562-.137-28.295-.304-28.295-.166 0-4.98 1.575-10.696 3.5-5.716 1.925-10.642 3.501-10.946 3.502-.305.002-.41-3.517-.234-7.819.23-5.611-.052-8.11-1-8.843-1.582-1.224-33.505-12.368-35.162-12.275-.637.036-5.77 1.683-11.408 3.66m-26.086 9.512l-8.296 2.996.316 29.802c.174 16.391.607 30.092.963 30.447.795.792 47.488 17.518 48.906 17.518.64 0 .91-3.914.731-10.611l-.284-10.612-15.271-5.52-15.27-5.521.27-19.592.271-19.593 6.726-2.585c3.7-1.422 6.991-2.85 7.314-3.173.459-.459-8.182-3.626-17.06-6.252-.56-.166-4.753 1.047-9.316 2.696m80.336 26.329c-2.2.784-7.15 2.557-11 3.939l-7 2.512.33 14.238c.181 7.831.457 14.365.612 14.52.155.156 5.182-1.459 11.17-3.588l10.888-3.87.277-14.659c.152-8.062-.073-14.626-.5-14.588-.427.039-2.577.712-4.777 1.496M79 182c0 3.007.399 4 1.607 4 1.055 0 1.398-.544 1-1.582-.334-.87-.607-2.67-.607-4S80.55 178 80 178s-1 1.8-1 4m18 0c0 3.333.333 4 2 4 2.423 0 2.801-4.342.571-6.571C97.397 177.254 97 177.651 97 182m71 0c0 3.333.333 4 2 4 2.423 0 2.801-4.342.571-6.571-2.174-2.175-2.571-1.778-2.571 2.571m-79.59-2.184c-.547.376-1.083 1.922-1.191 3.434-.153 2.144.242 2.75 1.792 2.75 1.534 0 1.989-.672 1.989-2.941 0-3.139-.972-4.356-2.59-3.243m18.58.695c-1.576 1.9-.255 5.685 1.845 5.287 2.162-.409 2.801-5.34.792-6.111-.814-.312-2.001.059-2.637.824m9.608-.775c-1.003 1.002-.665 6.264.402 6.264.55 0 1-.81 1-1.8s.48-2.28 1.067-2.867c.757-.757.639-1.232-.402-1.631-.808-.31-1.738-.295-2.067.034m7.701.927c-.916 2.388.255 4.842 2.461 5.157 1.955.278 2.24-.127 2.24-3.188 0-2.956-.333-3.483-2.116-3.348-1.164.087-2.327.708-2.585 1.379M141 182.5c0 2.204.481 3.5 1.299 3.5.896 0 1.173-1.086.891-3.5-.225-1.925-.81-3.5-1.299-3.5-.49 0-.891 1.575-.891 3.5m8.688-2.854c-.379.378-.688 1.995-.688 3.594 0 2.23.407 2.828 1.75 2.57 1.187-.229 1.75-1.271 1.75-3.24 0-2.827-1.427-4.31-2.812-2.924m9.303.865c-.636.766-1 2.202-.81 3.191.409 2.124 3.944 2.422 4.622.389.323-.969-.041-1.214-1.167-.782-1.047.402-1.636.111-1.636-.809 0-.867.595-1.209 1.5-.862.825.317 1.5.126 1.5-.424 0-1.689-2.786-2.177-4.009-.703M134 185c0 .55.45 1 1 1s1-.45 1-1-.45-1-1-1-1 .45-1 1" fill="#1976D2" fill-rule="evenodd"/><path fill-opacity=".467" d="M0 128.511v127.497l128.25-.254 128.25-.254.254-127.5.254-127.5-128.504.258L0 1.015v127.496m.485-.011c0 70.4.119 99.053.265 63.672.146-35.38.146-92.98 0-128C.604 29.153.485 58.1.485 128.5M110.25 70.365c-6.187 2.195-11.237 4.248-11.221 4.563.017.315 7.779 3.072 17.25 6.128l17.221 5.555.262 37.797c.246 35.433.371 37.754 2 37.111.956-.377 10.513-3.766 21.238-7.531 10.725-3.765 20.287-7.151 21.25-7.524 1.61-.624 1.75-2.955 1.75-29.071 0-15.616-.362-28.393-.804-28.393-.441 0-5.374 1.539-10.962 3.421l-10.158 3.421-.288-8.556-.288-8.556-18-6.178-18-6.178-11.25 3.991M84 79.876l-7.5 2.772-.264 30.573-.265 30.573 2.765 1c1.52.55 12.214 4.382 23.764 8.515 11.55 4.133 21.787 7.828 22.75 8.21 1.605.637 1.75-.247 1.745-10.662l-.004-11.357L111.5 134l-15.491-5.5-.004-19.162L96 90.177l7.25-2.769c3.987-1.523 7.64-3.1 8.116-3.505.74-.628-17.043-6.998-19.128-6.851-.406.029-4.113 1.299-8.238 2.824m81.5 26.768c-2.2.741-7.262 2.52-11.25 3.953l-7.25 2.606v28.765l11.166-3.983c6.141-2.191 11.329-4.147 11.528-4.346.2-.199.237-6.658.084-14.353l-.278-13.99-4 1.348M78 182c0 3.401.316 4 2.107 4 1.51 0 1.935-.448 1.5-1.582-.334-.87-.607-2.67-.607-4 0-1.483-.58-2.418-1.5-2.418-1.083 0-1.5 1.111-1.5 4m18 .066c0 3.847.149 4.05 2.75 3.75 3.401-.391 4.438-4.474 1.654-6.51-3.199-2.339-4.404-1.584-4.404 2.76m44.711-3.369c-.845 1.435.483 7.303 1.652 7.303 1.496 0 1.465-7.224-.033-7.723-.631-.211-1.359-.021-1.619.42M168 182c0 3.6.25 4 2.5 4 2.105 0 2.5-.469 2.5-2.965 0-1.908-.69-3.334-1.934-4-2.89-1.546-3.066-1.376-3.066 2.965m-80.299-2.368c-.385.386-.701 1.976-.701 3.535 0 2.374.415 2.833 2.563 2.833 2.289 0 2.53-.348 2.25-3.242-.298-3.091-2.484-4.753-4.112-3.126m18.711.736c-1.031 2.687.048 5.123 2.417 5.461 2.065.293 2.276-.023 1.99-2.992-.342-3.564-3.342-5.244-4.407-2.469M116 182.5c0 2.444.452 3.5 1.5 3.5.825 0 1.506-.562 1.514-1.25.007-.687.285-2.262.616-3.5.487-1.815.194-2.25-1.513-2.25-1.753 0-2.117.602-2.117 3.5m8 0c0 3.067.31 3.5 2.5 3.5s2.5-.433 2.5-3.5-.31-3.5-2.5-3.5-2.5.433-2.5 3.5m24.392-.927c-.741 2.955.6 4.77 3.157 4.271 3.368-.657 2.326-6.844-1.152-6.844-.748 0-1.65 1.158-2.005 2.573m10.02-1.205c-1.031 2.687.048 5.123 2.417 5.461 2.065.293 2.276-.023 1.99-2.992-.342-3.564-3.342-5.244-4.407-2.469M134 185c0 .55.45 1 1 1s1-.45 1-1-.45-1-1-1-1 .45-1 1" fill="#1976D2" fill-rule="evenodd"/></svg>