<svg xmlns="http://www.w3.org/2000/svg" width="256" height="256"><path fill-opacity=".247" d="M32 96v96h159v32H32v32h192v-96H64V32h30.982l.259 53.25.259 53.25h32l.257-69.25.257-69.25H32v96" fill="#1976D2" fill-rule="evenodd"/><path fill-opacity=".318" d="M32 96v96h160.05l-.275 16.25-.275 16.25-79.75.256-79.75.256V256h191v-96H64V30.949l15.75.276 15.75.275.259 53.25.259 53.25H127V0H32v96" fill="#1976D2" fill-rule="evenodd"/><path fill-opacity=".107" d="M32 95.5V191h160v34H32v31h191v-95H64V31h32v107h31V0H32v95.5" fill="#1976D2" fill-rule="evenodd"/></svg>